<svg xmlns="http://www.w3.org/2000/svg" aria-hidden="true" style="position:absolute;width:0;height:0;overflow:hidden">
  <defs>
    <symbol id="icon-install-svg" viewBox="0 0 33 32">
      <path stroke-linecap="round" stroke-linejoin="round" stroke-width="2.207" d="M30.375 29.678c-.306.299-.67.537-1.07.699a3.363 3.363 0 0 1-3.594-.699l-8.588-8.384a11.097 11.097 0 0 1-7.351.885c-2.199-.5-4.18-1.666-5.66-3.33S1.728 15.106 1.53 12.91a10.13 10.13 0 0 1 1.071-5.584l7.17 7.064 4.121-.805.824-4.023L7.48 2.61a10.807 10.807 0 0 1 5.72-1.094c2.249.193 4.378 1.076 6.083 2.521s2.899 3.379 3.411 5.525a10.376 10.376 0 0 1-.907 7.113l8.588 8.384c.317.3.568.659.74 1.056a3.151 3.151 0 0 1 0 2.508 3.21 3.21 0 0 1-.74 1.056z"/>
    </symbol>
    <symbol id="icon-speed-svg" viewBox="0 0 33 32">
      <path stroke-linecap="round" stroke-linejoin="round" stroke-width="1.829" d="M28.865 17.333c-.003 1.791-.416 3.56-1.21 5.175s-1.948 3.036-3.378 4.159H8.871c-1.62-1.272-2.883-2.923-3.671-4.801s-1.076-3.92-.836-5.935c.24-2.016.999-3.939 2.207-5.59s2.825-2.976 4.7-3.852a12.55 12.55 0 0 1 11.864.679c1.757 1.083 3.205 2.584 4.207 4.362s1.526 3.774 1.523 5.804z"/>
      <path stroke-linecap="round" stroke-linejoin="round" stroke-width="1.829" d="m22.036 12-5.463 8m1.366 0c0 .264-.08.521-.23.741s-.363.39-.613.491c-.25.101-.524.127-.789.076s-.508-.178-.699-.365c-.191-.186-.321-.424-.374-.683s-.026-.527.078-.77c.103-.244.278-.452.503-.598s.489-.225.759-.225c.362 0 .71.14.966.391s.4.589.4.943z"/>
    </symbol>
    <symbol id="icon-support-svg" viewBox="0 0 33 32">
      <path stroke-linecap="round" stroke-linejoin="round" stroke-width="1.829" d="M16.798 28c6.788 0 12.292-5.373 12.292-12S23.587 4 16.798 4 4.506 9.373 4.506 16s5.503 12 12.292 12z"/>
      <path stroke-linecap="round" stroke-linejoin="round" stroke-width="1.829" d="M16.798 9.333V16l2.731 4"/>
    </symbol>
  </defs>
</svg>
