<svg xmlns="http://www.w3.org/2000/svg" aria-hidden="true" style="position:absolute;width:0;height:0;overflow:hidden">
  <defs>
    <symbol id="icon-install-svg" viewBox="0 0 33 32">
      <path stroke-linecap="round" stroke-linejoin="round" stroke-width="2.207" d="M30.375 29.678c-.306.299-.67.537-1.07.699a3.363 3.363 0 0 1-3.594-.699l-8.588-8.384a11.097 11.097 0 0 1-7.351.885c-2.199-.5-4.18-1.666-5.66-3.33S1.728 15.106 1.53 12.91a10.13 10.13 0 0 1 1.071-5.584l7.17 7.064 4.121-.805.824-4.023L7.48 2.61a10.807 10.807 0 0 1 5.72-1.094c2.249.193 4.378 1.076 6.083 2.521s2.899 3.379 3.411 5.525a10.376 10.376 0 0 1-.907 7.113l8.588 8.384c.317.3.568.659.74 1.056a3.151 3.151 0 0 1 0 2.508 3.21 3.21 0 0 1-.74 1.056z"/>
    </symbol>
    <symbol id="icon-speed-svg" viewBox="0 0 33 32">
      <path stroke-linecap="round" stroke-linejoin="round" stroke-width="1.829" d="M28.865 17.333c-.003 1.791-.416 3.56-1.21 5.175s-1.948 3.036-3.378 4.159H8.871c-1.62-1.272-2.883-2.923-3.671-4.801s-1.076-3.92-.836-5.935c.24-2.016.999-3.939 2.207-5.59s2.825-2.976 4.7-3.852a12.55 12.55 0 0 1 11.864.679c1.757 1.083 3.205 2.584 4.207 4.362s1.526 3.774 1.523 5.804z"/>
      <path stroke-linecap="round" stroke-linejoin="round" stroke-width="1.829" d="m22.036 12-5.463 8m1.366 0c0 .264-.08.521-.23.741s-.363.39-.613.491c-.25.101-.524.127-.789.076s-.508-.178-.699-.365c-.191-.186-.321-.424-.374-.683s-.026-.527.078-.77c.103-.244.278-.452.503-.598s.489-.225.759-.225c.362 0 .71.14.966.391s.4.589.4.943z"/>
    </symbol>
    <symbol id="icon-support-svg" viewBox="0 0 33 32">
      <path stroke-linecap="round" stroke-linejoin="round" stroke-width="1.829" d="M16.798 28c6.788 0 12.292-5.373 12.292-12S23.587 4 16.798 4 4.506 9.373 4.506 16s5.503 12 12.292 12z"/>
      <path stroke-linecap="round" stroke-linejoin="round" stroke-width="1.829" d="M16.798 9.333V16l2.731 4"/>
    </symbol>
    <symbol id="icon-facebook" viewBox="0 0 31 32">
<path fill="#fff" style="fill: var(--color1, #fff)" d="M17.718 31.214h-5.009c-0.837 0-1.517-0.665-1.517-1.482v-11.033h-2.923c-0.837 0-1.517-0.665-1.517-1.482v-4.727c0-0.817 0.681-1.482 1.517-1.482h2.923v-2.367c0-2.347 0.755-4.344 2.183-5.775 1.434-1.437 3.439-2.197 5.797-2.197l3.82 0.006c0.835 0.001 1.515 0.666 1.515 1.482v4.389c0 0.817-0.68 1.482-1.517 1.482l-2.572 0.001c-0.784 0-0.984 0.154-1.027 0.201-0.070 0.078-0.154 0.299-0.154 0.908v1.87h3.56c0.268 0 0.528 0.065 0.751 0.186 0.481 0.263 0.781 0.759 0.781 1.296l-0.002 4.727c0 0.817-0.681 1.481-1.517 1.481h-3.572v11.033c0 0.817-0.681 1.482-1.518 1.482zM13.025 29.423h4.376v-11.525c0-0.546 0.455-0.989 1.013-0.989h4.077l0.002-4.109h-4.079c-0.558 0-1.013-0.444-1.013-0.989v-2.672c0-0.7 0.073-1.495 0.614-2.093 0.653-0.723 1.683-0.806 2.401-0.806l2.256-0.001v-3.772l-3.503-0.006c-3.789 0-6.144 2.369-6.144 6.181v3.169c0 0.545-0.454 0.989-1.013 0.989h-3.427v4.109h3.427c0.558 0 1.013 0.444 1.013 0.989v11.525zM22.987 2.467v0z"></path>
</symbol>
<symbol id="icon-instagram" viewBox="0 0 31 32">
<path fill="#fff" style="fill: var(--color1, #fff)" d="M22.769 0.747h-14.318c-4.66 0-8.451 3.709-8.451 8.268v14.008c0 4.559 3.791 8.268 8.451 8.268h14.318c4.66 0 8.451-3.709 8.451-8.268v-14.008c0-4.559-3.791-8.268-8.451-8.268v0zM29.389 23.023c0 3.571-2.97 6.477-6.621 6.477h-14.318c-3.651 0-6.621-2.906-6.621-6.477v-14.008c0-3.572 2.97-6.477 6.621-6.477h14.318c3.65 0 6.62 2.906 6.62 6.477v14.008z"></path>
<path fill="#fff" style="fill: var(--color1, #fff)" d="M15.61 7.667c-4.707 0-8.536 3.746-8.536 8.352s3.829 8.352 8.536 8.352c4.707 0 8.536-3.746 8.536-8.352s-3.829-8.352-8.536-8.352zM15.61 22.579c-3.698 0-6.706-2.943-6.706-6.561s3.008-6.561 6.706-6.561c3.698 0 6.706 2.943 6.706 6.561s-3.008 6.561-6.706 6.561z"></path>
<path fill="#fff" style="fill: var(--color1, #fff)" d="M24.35 4.701c-1.391 0-2.522 1.107-2.522 2.468s1.131 2.468 2.522 2.468c1.391 0 2.523-1.107 2.523-2.468s-1.132-2.468-2.523-2.468zM24.35 7.846c-0.382 0-0.692-0.304-0.692-0.677s0.311-0.677 0.692-0.677c0.382 0 0.692 0.304 0.692 0.677s-0.311 0.677-0.692 0.677z"></path>
</symbol>
<symbol id="icon-whatsapp" viewBox="0 0 31 32">
<path fill="#fff" style="fill: var(--color1, #fff)" d="M26.785 5.068c-2.86-2.798-6.661-4.338-10.705-4.338-0 0-0.001 0-0.001 0-2 0-3.95 0.379-5.793 1.126s-3.496 1.828-4.911 3.212c-2.859 2.798-4.434 6.517-4.434 10.474 0 2.359 0.582 4.704 1.684 6.793l-2.545 7.113c-0.179 0.502-0.052 1.047 0.332 1.423 0.269 0.263 0.623 0.403 0.987 0.403 0.156 0 0.314-0.026 0.468-0.078l7.27-2.489c2.135 1.079 4.532 1.648 6.944 1.648 4.044 0 7.846-1.541 10.705-4.338s4.434-6.517 4.434-10.474c0-3.957-1.575-7.676-4.434-10.474zM25.49 24.749c-2.514 2.459-5.856 3.814-9.41 3.814-2.175 0-4.335-0.526-6.248-1.522-0.347-0.18-0.757-0.211-1.125-0.085l-6.605 2.262 2.312-6.462c0.129-0.36 0.097-0.762-0.087-1.101-1.018-1.871-1.556-3.984-1.556-6.112 0-3.478 1.384-6.748 3.898-9.207s5.855-3.813 9.409-3.814h0.001c3.555 0 6.897 1.354 9.411 3.814s3.898 5.729 3.898 9.207c0 3.478-1.384 6.748-3.898 9.207z"></path>
<path fill="#fff" style="fill: var(--color1, #fff)" d="M21.706 16.865c-0.697-0.681-1.83-0.681-2.526 0l-0.762 0.745c-1.891-1.008-3.422-2.506-4.453-4.356l0.762-0.745c0.697-0.681 0.697-1.79 0-2.472l-2.053-2.008c-0.696-0.681-1.83-0.681-2.526 0l-1.642 1.606c-0.941 0.92-0.987 2.502-0.132 4.455 0.743 1.695 2.102 3.559 3.827 5.246s3.63 3.018 5.363 3.744c0.948 0.398 1.811 0.596 2.556 0.596 0.823 0 1.504-0.242 1.997-0.725l1.642-1.606c0.337-0.33 0.523-0.769 0.523-1.236s-0.186-0.906-0.523-1.236l-2.053-2.009zM20.822 21.685c-0.268 0.263-1.094 0.355-2.537-0.25-1.524-0.639-3.225-1.834-4.789-3.364s-2.786-3.194-3.439-4.685c-0.619-1.412-0.524-2.22-0.256-2.482l1.611-1.576 1.989 1.947-0.953 0.933c-0.431 0.422-0.535 1.061-0.259 1.592 1.254 2.405 3.215 4.324 5.674 5.551 0.542 0.271 1.196 0.169 1.627-0.253l0.953-0.933 1.99 1.947-1.611 1.576z"></path>
</symbol>
  </defs>
</svg>
